<svg width="82" height="84" viewBox="0 0 82 84" fill="none" xmlns="http://www.w3.org/2000/svg">
<g filter="url(#filter0_d)">
<path d="M77.243 15.9585C76.8302 15.2969 76.1164 14.902 75.3356 14.902H60.9239C59.4992 6.45851 52.1541 0 43.3112 0C33.4506 0 25.4289 8.02173 25.4289 17.8824C25.4289 26.3422 31.6013 31.2464 33.9245 33.0928C34.0869 33.2224 34.233 33.3372 34.3567 33.437C34.2956 34.4191 34.0065 36.6186 32.6221 37.5887C31.6296 38.2861 30.1096 38.2891 28.1083 37.5917C26.3498 36.9792 24.6912 35.9018 23.1787 34.3878L14.3225 25.5315C13.6832 24.8952 12.8174 24.5644 11.9039 24.6315C11.0023 24.6985 10.1752 25.1545 9.6343 25.8847C7.33344 28.9933 3.61838 35.5933 4.56614 44.7387C4.57211 44.9935 4.73454 51.072 7.01007 57.8598C10.0888 67.0424 15.5936 73.0435 22.9269 75.2147C24.7076 75.7437 26.6658 76 28.913 76H39.1327C43.7032 76 48.1231 74.6767 51.9127 72.1747L52.2971 71.9198C62.9312 64.7699 66.7774 51.1003 61.2443 40.1235C59.6036 36.8689 57.3444 34.276 54.5145 32.4013C55.0823 31.692 55.7544 30.8068 56.4488 29.8039H64.405C66.1709 29.8039 67.8056 29.3494 69.1349 28.4926C73.1524 25.8981 76.0106 20.8851 77.3578 18.1267C77.6975 17.4278 77.6558 16.6172 77.243 15.9585ZM58.5843 41.4647C63.4423 51.1033 60.0253 63.1336 50.5834 69.4804L50.2734 69.6875C46.9697 71.8677 43.1175 73.0196 39.1327 73.0196H28.913C26.9563 73.0196 25.2769 72.802 23.7733 72.358C8.27524 67.7682 7.5525 44.9011 7.53909 44.5524C6.68669 36.2878 9.98748 30.4194 12.0305 27.658L10.8324 26.7714L12.2153 27.6387L21.0716 36.4934C22.903 38.3278 24.9416 39.6437 27.1262 40.4052C30.0858 41.4364 32.5073 41.3082 34.3343 40.0267C37.0062 38.152 37.3341 34.5413 37.3505 33.0838C37.3609 32.4922 37.1299 31.9394 36.7022 31.5296C36.5055 31.3418 36.1866 31.084 35.7768 30.7576C33.5713 29.0052 28.4078 24.9027 28.4078 17.8809C28.4078 9.66392 35.0928 2.9789 43.3098 2.9789C50.9679 2.9789 57.2893 8.78769 58.1149 16.2297L58.1417 16.5263C58.1819 16.9733 58.2117 17.4234 58.2117 17.8809C58.2117 18.3413 58.1551 18.8256 58.0716 19.3189C58.0567 19.4083 58.0433 19.4962 58.0254 19.5871C57.8228 20.6303 57.4607 21.73 56.9749 22.8507C56.9659 22.8715 56.957 22.8924 56.948 22.9133C56.4473 24.0562 55.8259 25.2141 55.136 26.3437C55.0778 26.4376 55.0152 26.5329 54.9556 26.6283C53.92 28.2899 52.7501 29.8814 51.6027 31.2509C51.2033 31.7263 51.0349 32.3492 51.1392 32.9587C51.245 33.5801 51.6206 34.121 52.169 34.4459C54.8886 36.0538 57.0479 38.4143 58.5843 41.4647ZM67.5195 25.9875C66.6731 26.5344 65.5956 26.8235 64.405 26.8235H58.3265C58.5455 26.4361 58.7571 26.0412 58.9628 25.6388C58.9851 25.5971 59.006 25.5554 59.0269 25.5136C59.1878 25.1962 59.3428 24.8744 59.4918 24.5495C59.5335 24.4571 59.5782 24.3647 59.6185 24.2738C59.7347 24.013 59.8435 23.7522 59.9493 23.4885C59.9985 23.3663 60.0521 23.2441 60.0983 23.1234C60.1818 22.9058 60.2563 22.6867 60.3323 22.4677C60.3829 22.3187 60.441 22.1682 60.4872 22.0221C60.526 21.9029 60.5543 21.7822 60.5901 21.6615C60.748 21.1265 60.8792 20.602 60.973 20.0923C60.9835 20.0402 60.9969 19.9865 61.0058 19.9344C61.0505 19.6795 61.0789 19.4322 61.1072 19.1848C61.1191 19.0879 61.137 18.9911 61.1459 18.8942C61.1772 18.5515 61.1936 18.2132 61.1936 17.8838H74.1374C72.8976 20.21 70.5312 24.0428 67.5195 25.9875Z" fill="#5D62B5"/>
<path d="M53.7423 14.9017C53.7423 10.7932 50.3998 7.45068 46.2913 7.45068C42.1828 7.45068 38.8403 10.7932 38.8403 14.9017C38.8403 19.0101 42.1828 22.3526 46.2913 22.3526C50.3998 22.3526 53.7423 19.0101 53.7423 14.9017ZM41.8207 14.9017C41.8207 12.4369 43.8265 10.4311 46.2913 10.4311C48.3478 10.4311 50.0675 11.8348 50.5861 13.7289C50.1882 13.5322 49.7456 13.4115 49.2717 13.4115C47.625 13.4115 46.2913 14.7452 46.2913 16.3919C46.2913 17.5587 46.9679 18.5571 47.9439 19.0474C47.4313 19.2515 46.8755 19.3723 46.2913 19.3723C43.8265 19.3723 41.8207 17.3664 41.8207 14.9017Z" fill="#5D62B5"/>
<path d="M43.1221 44.0414C40.7363 42.7494 37.8036 42.9685 34.3911 44.6986C30.9189 46.4615 26.9326 47.8295 22.2057 48.8816L21.641 49.0068C20.9525 49.1602 20.3683 49.6043 20.042 50.2257C19.7156 50.8427 19.6769 51.5669 19.9362 52.2151C21.1805 55.3446 25.9983 65.5405 35.7948 65.5867C35.9155 65.5956 36.145 65.6105 36.458 65.6105C37.9139 65.6105 41.1804 65.311 43.8672 62.8984C46.4661 60.5632 47.7835 56.9555 47.7835 52.1764L47.7745 52.0169C47.7477 51.78 47.1054 46.2022 43.1221 44.0414ZM41.8987 60.6586C39.4101 62.9162 36.0452 62.6152 36.0199 62.6152L35.8619 62.6063C28.4541 62.6063 24.374 54.9973 22.9762 51.7636C27.8968 50.6609 32.0738 49.2184 35.7427 47.3556C38.2164 46.0994 40.2192 45.8595 41.693 46.6552C44.1221 47.9636 44.7271 51.7189 44.8031 52.2673C44.7852 56.1016 43.8091 58.924 41.8987 60.6586Z" fill="#5D62B5"/>
</g>
<defs>
<filter id="filter0_d" x="-1" y="0" width="84" height="84" filterUnits="userSpaceOnUse" color-interpolation-filters="sRGB">
<feFlood flood-opacity="0" result="BackgroundImageFix"/>
<feColorMatrix in="SourceAlpha" type="matrix" values="0 0 0 0 0 0 0 0 0 0 0 0 0 0 0 0 0 0 127 0" result="hardAlpha"/>
<feOffset dy="4"/>
<feGaussianBlur stdDeviation="2"/>
<feComposite in2="hardAlpha" operator="out"/>
<feColorMatrix type="matrix" values="0 0 0 0 0 0 0 0 0 0 0 0 0 0 0 0 0 0 0.25 0"/>
<feBlend mode="normal" in2="BackgroundImageFix" result="effect1_dropShadow"/>
<feBlend mode="normal" in="SourceGraphic" in2="effect1_dropShadow" result="shape"/>
</filter>
</defs>
</svg>
